<svg width="40" height="40" viewBox="0 0 40 40" fill="none" xmlns="http://www.w3.org/2000/svg">
<g clip-path="url(#clip0_547_94)">
<path d="M39.9268 18.2822C39.9748 18.8478 40.001 19.42 40.001 19.998C40.001 31.0439 31.0458 39.999 20 39.999C8.95428 39.9989 0 31.0438 0 19.998C0.000131941 8.95241 8.95436 -0.00182118 20 -0.00195312C24.5007 -0.00195312 28.6541 1.48515 31.9961 3.99414V-0.00195312H39.9268V18.2822ZM20.0088 8.26855C18.1358 12.263 15.5186 15.0628 10 15.3457C11.8047 24.9004 15.0485 27.5826 20.0088 30.6055C25.8334 27.3283 28.2378 23.9674 30.0537 15.3457C24.2605 14.6011 21.9233 12.0437 20.0088 8.26855Z" fill="#00C951"/>
</g>
<defs>
<clipPath id="clip0_547_94">
<rect width="40" height="40" fill="white"/>
</clipPath>
</defs>
</svg>
