<svg width="2440" height="473" viewBox="0 0 2440 473" fill="none" xmlns="http://www.w3.org/2000/svg">
<path d="M395.667 220.241C396.117 225.659 396.348 231.14 396.348 236.674C396.348 344.741 308.741 432.347 200.674 432.348C92.6062 432.348 5 344.741 5 236.674C5 128.606 92.6062 41 200.674 41C244.722 41.0001 285.37 55.5559 318.072 80.1182V41H395.667V220.241ZM200.671 121.919C182.346 161 156.74 188.392 102.748 191.16C120.405 284.642 152.139 310.884 200.671 340.459C257.657 308.397 281.173 275.511 298.939 191.16C242.261 183.876 219.402 158.854 200.671 121.919Z" fill="#00C951"/>
<path d="M581.063 337.805C565.688 337.805 551.763 333.851 539.287 325.944C526.899 317.949 517.059 306.22 509.767 290.758C502.563 275.207 498.961 256.142 498.961 233.563C498.961 210.369 502.695 191.085 510.163 175.71C517.63 160.247 527.558 148.694 539.946 141.05C552.422 133.319 566.083 129.453 580.931 129.453C592.264 129.453 601.709 131.386 609.265 135.252C616.908 139.03 623.058 143.774 627.715 149.485C632.459 155.107 636.061 160.642 638.521 166.089H640.234V64.6152H696.243V334.51H640.893V302.091H638.521C635.885 307.714 632.151 313.293 627.319 318.828C622.575 324.275 616.381 328.799 608.738 332.402C601.182 336.004 591.957 337.805 581.063 337.805ZM598.854 293.13C607.903 293.13 615.546 290.67 621.784 285.75C628.11 280.742 632.942 273.757 636.281 264.796C639.707 255.835 641.42 245.336 641.42 233.3C641.42 221.263 639.751 210.808 636.412 201.935C633.074 193.061 628.242 186.209 621.916 181.376C615.59 176.544 607.903 174.128 598.854 174.128C589.629 174.128 581.853 176.632 575.528 181.64C569.202 186.648 564.414 193.588 561.163 202.462C557.913 211.335 556.287 221.615 556.287 233.3C556.287 245.072 557.913 255.483 561.163 264.533C564.502 273.494 569.29 280.522 575.528 285.618C581.853 290.626 589.629 293.13 598.854 293.13Z" fill="black"/>
<path d="M723.845 334.51V132.089H778.272V167.407H780.38C784.07 154.844 790.264 145.355 798.962 138.942C807.66 132.44 817.676 129.19 829.009 129.19C831.82 129.19 834.851 129.365 838.102 129.717C841.353 130.068 844.208 130.551 846.668 131.166V180.981C844.032 180.19 840.386 179.488 835.73 178.873C831.074 178.258 826.813 177.95 822.947 177.95C814.688 177.95 807.308 179.751 800.807 183.353C794.394 186.867 789.298 191.787 785.52 198.113C781.83 204.439 779.985 211.731 779.985 219.989V334.51H723.845Z" fill="black"/>
<path d="M939.174 338.464C918.704 338.464 901.001 334.115 886.065 325.417C871.217 316.631 859.752 304.419 851.669 288.781C843.587 273.055 839.545 254.824 839.545 234.09C839.545 213.18 843.587 194.906 851.669 179.268C859.752 163.542 871.217 151.33 886.065 142.632C901.001 133.846 918.704 129.453 939.174 129.453C959.645 129.453 977.304 133.846 992.152 142.632C1007.09 151.33 1018.6 163.542 1026.68 179.268C1034.76 194.906 1038.8 213.18 1038.8 234.09C1038.8 254.824 1034.76 273.055 1026.68 288.781C1018.6 304.419 1007.09 316.631 992.152 325.417C977.304 334.115 959.645 338.464 939.174 338.464ZM939.438 294.975C948.751 294.975 956.526 292.339 962.764 287.068C969.002 281.708 973.702 274.416 976.865 265.191C980.115 255.967 981.741 245.468 981.741 233.695C981.741 221.922 980.115 211.423 976.865 202.198C973.702 192.973 969.002 185.681 962.764 180.322C956.526 174.963 948.751 172.283 939.438 172.283C930.037 172.283 922.13 174.963 915.717 180.322C909.391 185.681 904.603 192.973 901.352 202.198C898.189 211.423 896.608 221.922 896.608 233.695C896.608 245.468 898.189 255.967 901.352 265.191C904.603 274.416 909.391 281.708 915.717 287.068C922.13 292.339 930.037 294.975 939.438 294.975Z" fill="black"/>
<path d="M1056.75 410.418V132.089H1112.1V166.089H1114.61C1117.07 160.642 1120.62 155.107 1125.28 149.485C1130.02 143.774 1136.17 139.03 1143.73 135.252C1151.37 131.386 1160.86 129.453 1172.2 129.453C1186.96 129.453 1200.57 133.319 1213.05 141.05C1225.52 148.694 1235.5 160.247 1242.96 175.71C1250.43 191.085 1254.17 210.369 1254.17 233.563C1254.17 256.142 1250.52 275.207 1243.23 290.758C1236.02 306.22 1226.18 317.949 1213.71 325.944C1201.32 333.851 1187.44 337.805 1172.06 337.805C1161.17 337.805 1151.9 336.004 1144.26 332.402C1136.7 328.799 1130.51 324.275 1125.68 318.828C1120.84 313.293 1117.15 307.714 1114.61 302.091H1112.89V410.418H1056.75ZM1111.71 233.3C1111.71 245.336 1113.38 255.835 1116.71 264.796C1120.05 273.757 1124.89 280.742 1131.21 285.75C1137.54 290.67 1145.22 293.13 1154.27 293.13C1163.41 293.13 1171.14 290.626 1177.47 285.618C1183.79 280.522 1188.58 273.494 1191.83 264.533C1195.17 255.483 1196.84 245.072 1196.84 233.3C1196.84 221.615 1195.21 211.335 1191.96 202.462C1188.71 193.588 1183.92 186.648 1177.6 181.64C1171.27 176.632 1163.5 174.128 1154.27 174.128C1145.14 174.128 1137.4 176.544 1131.08 181.376C1124.84 186.209 1120.05 193.061 1116.71 201.935C1113.38 210.808 1111.71 221.263 1111.71 233.3Z" fill="black"/>
<path d="M1330.76 338.332C1317.84 338.332 1306.34 336.092 1296.23 331.611C1286.13 327.042 1278.13 320.321 1272.25 311.448C1266.45 302.486 1263.55 291.329 1263.55 277.975C1263.55 266.729 1265.61 257.284 1269.74 249.641C1273.87 241.997 1279.5 235.847 1286.61 231.191C1293.73 226.535 1301.81 223.02 1310.86 220.648C1320 218.276 1329.57 216.607 1339.59 215.64C1351.36 214.41 1360.85 213.268 1368.05 212.214C1375.26 211.072 1380.49 209.403 1383.74 207.206C1386.99 205.01 1388.61 201.759 1388.61 197.454V196.663C1388.61 188.317 1385.98 181.86 1380.71 177.291C1375.52 172.723 1368.14 170.438 1358.57 170.438C1348.46 170.438 1340.42 172.679 1334.45 177.159C1328.47 181.552 1324.52 187.087 1322.59 193.764L1270.67 189.547C1273.3 177.247 1278.48 166.617 1286.22 157.655C1293.95 148.606 1303.92 141.665 1316.13 136.833C1328.43 131.913 1342.66 129.453 1358.83 129.453C1370.07 129.453 1380.84 130.771 1391.12 133.407C1401.48 136.043 1410.66 140.128 1418.66 145.663C1426.74 151.198 1433.11 158.314 1437.77 167.012C1442.42 175.622 1444.75 185.945 1444.75 197.981V334.51H1391.51V306.44H1389.93C1386.68 312.766 1382.33 318.345 1376.88 323.177C1371.44 327.921 1364.89 331.655 1357.25 334.378C1349.6 337.014 1340.77 338.332 1330.76 338.332ZM1346.84 299.587C1355.1 299.587 1362.39 297.962 1368.71 294.711C1375.04 291.373 1380 286.892 1383.6 281.269C1387.21 275.646 1389.01 269.277 1389.01 262.16V240.68C1387.25 241.822 1384.83 242.876 1381.76 243.842C1378.77 244.721 1375.39 245.556 1371.61 246.346C1367.83 247.049 1364.06 247.708 1360.28 248.323C1356.5 248.85 1353.07 249.333 1350 249.773C1343.41 250.739 1337.66 252.277 1332.74 254.385C1327.82 256.494 1323.99 259.349 1321.27 262.951C1318.55 266.465 1317.19 270.858 1317.19 276.13C1317.19 283.773 1319.95 289.616 1325.49 293.657C1331.11 297.61 1338.23 299.587 1346.84 299.587Z" fill="black"/>
<path d="M1561.21 338.464C1540.48 338.464 1522.64 334.071 1507.71 325.285C1492.86 316.412 1481.44 304.112 1473.44 288.386C1465.54 272.659 1461.58 254.561 1461.58 234.09C1461.58 213.356 1465.58 195.17 1473.57 179.531C1481.66 163.805 1493.12 151.549 1507.97 142.764C1522.82 133.89 1540.48 129.453 1560.95 129.453C1578.61 129.453 1594.07 132.66 1607.34 139.074C1620.6 145.487 1631.1 154.492 1638.83 166.089C1646.56 177.686 1650.82 191.304 1651.62 206.943H1598.64C1597.14 196.839 1593.19 188.712 1586.78 182.562C1580.45 176.325 1572.15 173.206 1561.87 173.206C1553.17 173.206 1545.57 175.578 1539.07 180.322C1532.66 184.979 1527.65 191.787 1524.05 200.749C1520.45 209.71 1518.64 220.56 1518.64 233.3C1518.64 246.214 1520.4 257.197 1523.92 266.246C1527.52 275.295 1532.57 282.192 1539.07 286.936C1545.57 291.68 1553.17 294.052 1561.87 294.052C1568.28 294.052 1574.04 292.734 1579.13 290.099C1584.32 287.463 1588.58 283.641 1591.92 278.633C1595.34 273.538 1597.58 267.432 1598.64 260.315H1651.62C1650.74 275.778 1646.52 289.396 1638.96 301.169C1631.5 312.854 1621.17 321.991 1607.99 328.58C1594.82 335.169 1579.22 338.464 1561.21 338.464Z" fill="black"/>
<path d="M1760.46 338.464C1739.73 338.464 1721.89 334.071 1706.96 325.285C1692.11 316.412 1680.69 304.112 1672.69 288.386C1664.79 272.659 1660.83 254.561 1660.83 234.09C1660.83 213.356 1664.83 195.17 1672.83 179.531C1680.91 163.805 1692.37 151.549 1707.22 142.764C1722.07 133.89 1739.73 129.453 1760.2 129.453C1777.86 129.453 1793.32 132.66 1806.59 139.074C1819.85 145.487 1830.35 154.492 1838.08 166.089C1845.82 177.686 1850.08 191.304 1850.87 206.943H1797.89C1796.4 196.839 1792.44 188.712 1786.03 182.562C1779.7 176.325 1771.4 173.206 1761.12 173.206C1752.42 173.206 1744.82 175.578 1738.32 180.322C1731.91 184.979 1726.9 191.787 1723.3 200.749C1719.7 209.71 1717.9 220.56 1717.9 233.3C1717.9 246.214 1719.65 257.197 1723.17 266.246C1726.77 275.295 1731.82 282.192 1738.32 286.936C1744.82 291.68 1752.42 294.052 1761.12 294.052C1767.54 294.052 1773.29 292.734 1778.39 290.099C1783.57 287.463 1787.83 283.641 1791.17 278.633C1794.6 273.538 1796.84 267.432 1797.89 260.315H1850.87C1849.99 275.778 1845.77 289.396 1838.22 301.169C1830.75 312.854 1820.42 321.991 1807.25 328.58C1794.07 335.169 1778.47 338.464 1760.46 338.464Z" fill="black"/>
<path d="M1960.51 338.464C1939.68 338.464 1921.76 334.247 1906.74 325.812C1891.8 317.29 1880.29 305.254 1872.21 289.703C1864.13 274.065 1860.09 255.571 1860.09 234.222C1860.09 213.4 1864.13 195.126 1872.21 179.4C1880.29 163.673 1891.67 151.417 1906.34 142.632C1921.1 133.846 1938.41 129.453 1958.26 129.453C1971.62 129.453 1984.05 131.606 1995.56 135.911C2007.16 140.128 2017.26 146.497 2025.87 155.019C2034.57 163.542 2041.33 174.26 2046.17 187.175C2051 200.002 2053.41 215.025 2053.41 232.245V247.664H1882.49V212.873H2000.57C2000.57 204.79 1998.81 197.63 1995.3 191.392C1991.78 185.154 1986.91 180.278 1980.67 176.764C1974.52 173.162 1967.36 171.361 1959.19 171.361C1950.67 171.361 1943.11 173.338 1936.52 177.291C1930.02 181.157 1924.92 186.384 1921.23 192.973C1917.54 199.475 1915.65 206.723 1915.57 214.718V247.796C1915.57 257.812 1917.41 266.465 1921.1 273.757C1924.88 281.05 1930.19 286.672 1937.05 290.626C1943.9 294.579 1952.03 296.556 1961.43 296.556C1967.67 296.556 1973.38 295.678 1978.56 293.92C1983.74 292.163 1988.18 289.528 1991.87 286.013C1995.56 282.499 1998.37 278.194 2000.3 273.099L2052.23 276.525C2049.59 289.001 2044.19 299.895 2036.02 309.208C2027.94 318.432 2017.48 325.637 2004.65 330.82C1991.91 335.916 1977.2 338.464 1960.51 338.464Z" fill="black"/>
<path d="M2239.92 189.811L2188.52 192.973C2187.64 188.581 2185.75 184.627 2182.85 181.113C2179.95 177.511 2176.13 174.655 2171.39 172.547C2166.73 170.35 2161.15 169.252 2154.65 169.252C2145.95 169.252 2138.62 171.097 2132.64 174.787C2126.67 178.389 2123.68 183.221 2123.68 189.283C2123.68 194.116 2125.61 198.201 2129.48 201.539C2133.35 204.878 2139.98 207.558 2149.38 209.578L2186.02 216.958C2205.7 221 2220.37 227.501 2230.03 236.462C2239.7 245.424 2244.53 257.197 2244.53 271.781C2244.53 285.047 2240.62 296.688 2232.8 306.704C2225.07 316.719 2214.44 324.538 2200.91 330.161C2187.46 335.696 2171.96 338.464 2154.39 338.464C2127.59 338.464 2106.24 332.885 2090.34 321.727C2074.53 310.481 2065.26 295.194 2062.53 275.866L2117.75 272.967C2119.42 281.137 2123.46 287.375 2129.87 291.68C2136.29 295.897 2144.5 298.006 2154.52 298.006C2164.36 298.006 2172.27 296.117 2178.24 292.339C2184.3 288.473 2187.38 283.51 2187.46 277.447C2187.38 272.352 2185.22 268.179 2181.01 264.928C2176.79 261.589 2170.29 259.042 2161.5 257.284L2126.45 250.3C2106.68 246.346 2091.96 239.493 2082.3 229.741C2072.72 219.989 2067.94 207.558 2067.94 192.446C2067.94 179.444 2071.45 168.242 2078.48 158.841C2085.6 149.441 2095.57 142.192 2108.39 137.097C2121.31 132.001 2136.42 129.453 2153.73 129.453C2179.29 129.453 2199.41 134.856 2214.09 145.663C2228.85 156.469 2237.46 171.185 2239.92 189.811Z" fill="black"/>
<path d="M2429.74 189.811L2378.35 192.973C2377.47 188.581 2375.58 184.627 2372.68 181.113C2369.78 177.511 2365.96 174.655 2361.22 172.547C2356.56 170.35 2350.98 169.252 2344.48 169.252C2335.78 169.252 2328.45 171.097 2322.47 174.787C2316.5 178.389 2313.51 183.221 2313.51 189.283C2313.51 194.116 2315.44 198.201 2319.31 201.539C2323.17 204.878 2329.81 207.558 2339.21 209.578L2375.84 216.958C2395.52 221 2410.2 227.501 2419.86 236.462C2429.52 245.424 2434.36 257.197 2434.36 271.781C2434.36 285.047 2430.45 296.688 2422.63 306.704C2414.9 316.719 2404.27 324.538 2390.74 330.161C2377.29 335.696 2361.79 338.464 2344.22 338.464C2317.42 338.464 2296.07 332.885 2280.17 321.727C2264.35 310.481 2255.09 295.194 2252.36 275.866L2307.58 272.967C2309.25 281.137 2313.29 287.375 2319.7 291.68C2326.12 295.897 2334.33 298.006 2344.35 298.006C2354.19 298.006 2362.09 296.117 2368.07 292.339C2374.13 288.473 2377.21 283.51 2377.29 277.447C2377.21 272.352 2375.05 268.179 2370.84 264.928C2366.62 261.589 2360.12 259.042 2351.33 257.284L2316.28 250.3C2296.51 246.346 2281.79 239.493 2272.13 229.741C2262.55 219.989 2257.77 207.558 2257.77 192.446C2257.77 179.444 2261.28 168.242 2268.31 158.841C2275.42 149.441 2285.4 142.192 2298.22 137.097C2311.14 132.001 2326.25 129.453 2343.56 129.453C2369.12 129.453 2389.24 134.856 2403.91 145.663C2418.67 156.469 2427.28 171.185 2429.74 189.811Z" fill="black"/>
</svg>
