<svg width="200" height="60" viewBox="0 0 200 60" fill="none" xmlns="http://www.w3.org/2000/svg">
<path d="M32.8418 28.7412C32.8778 29.1783 32.8965 29.621 32.8965 30.0674C32.8961 38.8751 25.7561 46.0156 16.9482 46.0156C8.14049 46.0155 1.00039 38.8751 1 30.0674C1 21.2594 8.14025 14.1192 16.9482 14.1191C20.5387 14.1191 23.852 15.3054 26.5176 17.3076V14.1191H32.8418V28.7412ZM16.9531 20.7119C15.4596 23.8972 13.3723 26.1299 8.97168 26.3555C10.4108 33.9747 12.9976 36.1139 16.9531 38.5244C21.5978 35.9112 23.5148 33.2305 24.9629 26.3555C20.3433 25.7617 18.4798 23.7223 16.9531 20.7119Z" fill="#00C951"/>
<path d="M47.9456 38.3113C46.6925 38.3113 45.5575 37.9891 44.5407 37.3446C43.531 36.693 42.729 35.737 42.1347 34.4767C41.5475 33.2093 41.2539 31.6554 41.2539 29.8151C41.2539 27.9246 41.5582 26.3528 42.1669 25.0997C42.7756 23.8394 43.5847 22.8978 44.5944 22.2748C45.6112 21.6446 46.7247 21.3296 47.9349 21.3296C48.8586 21.3296 49.6284 21.4871 50.2442 21.8022C50.8672 22.1101 51.3685 22.4968 51.748 22.9622C52.1347 23.4205 52.4283 23.8716 52.6288 24.3156H52.7684V16.0449H57.3334V38.0428H52.8221V35.4004H52.6288C52.4139 35.8587 52.1096 36.3134 51.7158 36.7646C51.3291 37.2085 50.8243 37.5773 50.2013 37.8709C49.5854 38.1645 48.8336 38.3113 47.9456 38.3113ZM49.3957 34.6701C50.1332 34.6701 50.7562 34.4695 51.2646 34.0685C51.7802 33.6604 52.1741 33.0911 52.4462 32.3607C52.7254 31.6303 52.8651 30.7746 52.8651 29.7936C52.8651 28.8126 52.729 27.9604 52.4569 27.2372C52.1848 26.5139 51.791 25.9554 51.2754 25.5616C50.7598 25.1677 50.1332 24.9708 49.3957 24.9708C48.6438 24.9708 48.0101 25.1749 47.4945 25.5831C46.9789 25.9912 46.5887 26.5569 46.3237 27.2801C46.0588 28.0034 45.9263 28.8412 45.9263 29.7936C45.9263 30.7531 46.0588 31.6017 46.3237 32.3392C46.5958 33.0696 46.9861 33.6425 47.4945 34.0578C48.0101 34.466 48.6438 34.6701 49.3957 34.6701Z" fill="white"/>
<path d="M59.5831 38.0428V21.5444H64.0192V24.423H64.1911C64.4918 23.399 64.9967 22.6257 65.7056 22.1029C66.4145 21.573 67.2308 21.3081 68.1545 21.3081C68.3837 21.3081 68.6307 21.3224 68.8957 21.351C69.1606 21.3797 69.3934 21.4191 69.5939 21.4692V25.5293C69.379 25.4649 69.0819 25.4076 68.7023 25.3575C68.3228 25.3074 67.9755 25.2823 67.6605 25.2823C66.9873 25.2823 66.3858 25.4291 65.8559 25.7227C65.3332 26.0091 64.9179 26.4101 64.61 26.9257C64.3092 27.4413 64.1588 28.0356 64.1588 28.7087V38.0428H59.5831Z" fill="white"/>
<path d="M77.1336 38.365C75.4651 38.365 74.0223 38.0105 72.8049 37.3016C71.5948 36.5856 70.6603 35.5902 70.0015 34.3156C69.3427 33.0338 69.0133 31.548 69.0133 29.858C69.0133 28.1538 69.3427 26.6643 70.0015 25.3897C70.6603 24.1079 71.5948 23.1126 72.8049 22.4037C74.0223 21.6876 75.4651 21.3296 77.1336 21.3296C78.8021 21.3296 80.2414 21.6876 81.4515 22.4037C82.6689 23.1126 83.6069 24.1079 84.2657 25.3897C84.9245 26.6643 85.2539 28.1538 85.2539 29.858C85.2539 31.548 84.9245 33.0338 84.2657 34.3156C83.6069 35.5902 82.6689 36.5856 81.4515 37.3016C80.2414 38.0105 78.8021 38.365 77.1336 38.365ZM77.1551 34.8204C77.9141 34.8204 78.5479 34.6056 79.0563 34.176C79.5647 33.7392 79.9478 33.1448 80.2056 32.3929C80.4705 31.6411 80.603 30.7853 80.603 29.8258C80.603 28.8663 80.4705 28.0105 80.2056 27.2587C79.9478 26.5068 79.5647 25.9124 79.0563 25.4756C78.5479 25.0388 77.9141 24.8204 77.1551 24.8204C76.3889 24.8204 75.7444 25.0388 75.2217 25.4756C74.7061 25.9124 74.3158 26.5068 74.0509 27.2587C73.7931 28.0105 73.6642 28.8663 73.6642 29.8258C73.6642 30.7853 73.7931 31.6411 74.0509 32.3929C74.3158 33.1448 74.7061 33.7392 75.2217 34.176C75.7444 34.6056 76.3889 34.8204 77.1551 34.8204Z" fill="white"/>
<path d="M86.7168 44.2297V21.5444H91.2281V24.3156H91.4322C91.6327 23.8716 91.9227 23.4205 92.3022 22.9622C92.6889 22.4968 93.1902 22.1101 93.806 21.8022C94.429 21.4871 95.2023 21.3296 96.1261 21.3296C97.3291 21.3296 98.439 21.6446 99.4558 22.2748C100.473 22.8978 101.285 23.8394 101.894 25.0997C102.503 26.3528 102.807 27.9246 102.807 29.8151C102.807 31.6554 102.51 33.2093 101.916 34.4767C101.328 35.737 100.526 36.693 99.5095 37.3446C98.4999 37.9891 97.3685 38.3113 96.1153 38.3113C95.2274 38.3113 94.4719 38.1645 93.849 37.8709C93.2331 37.5773 92.7283 37.2085 92.3345 36.7646C91.9406 36.3134 91.6399 35.8587 91.4322 35.4004H91.2926V44.2297H86.7168ZM91.1959 29.7936C91.1959 30.7746 91.332 31.6303 91.6041 32.3607C91.8762 33.0911 92.27 33.6604 92.7856 34.0685C93.3012 34.4695 93.9277 34.6701 94.6653 34.6701C95.41 34.6701 96.0402 34.466 96.5557 34.0578C97.0713 33.6425 97.4616 33.0696 97.7265 32.3392C97.9986 31.6017 98.1347 30.7531 98.1347 29.7936C98.1347 28.8412 98.0022 28.0034 97.7373 27.2801C97.4723 26.5569 97.082 25.9912 96.5665 25.5831C96.0509 25.1749 95.4172 24.9708 94.6653 24.9708C93.9206 24.9708 93.2904 25.1677 92.7748 25.5616C92.2664 25.9554 91.8762 26.5139 91.6041 27.2372C91.332 27.9604 91.1959 28.8126 91.1959 29.7936Z" fill="white"/>
<path d="M109.05 38.3543C107.997 38.3543 107.059 38.1717 106.236 37.8065C105.412 37.4341 104.761 36.8863 104.281 36.1631C103.808 35.4327 103.572 34.5233 103.572 33.4348C103.572 32.5182 103.74 31.7485 104.077 31.1255C104.413 30.5025 104.872 30.0012 105.452 29.6217C106.032 29.2422 106.69 28.9558 107.428 28.7624C108.173 28.5691 108.953 28.433 109.769 28.3543C110.729 28.254 111.502 28.1609 112.09 28.075C112.677 27.9819 113.103 27.8458 113.368 27.6668C113.633 27.4878 113.765 27.2229 113.765 26.872V26.8075C113.765 26.1273 113.55 25.601 113.121 25.2286C112.698 24.8562 112.097 24.6701 111.316 24.6701C110.493 24.6701 109.838 24.8527 109.351 25.2179C108.864 25.5759 108.541 26.027 108.384 26.5712L104.152 26.2275C104.367 25.225 104.789 24.3586 105.419 23.6282C106.049 22.8906 106.862 22.3249 107.858 21.9311C108.86 21.5301 110.02 21.3296 111.338 21.3296C112.254 21.3296 113.131 21.437 113.969 21.6518C114.814 21.8666 115.563 22.1996 116.214 22.6507C116.873 23.1018 117.392 23.6819 117.772 24.3908C118.151 25.0925 118.341 25.9339 118.341 26.915V38.0428H114.001V35.7549H113.873C113.608 36.2705 113.253 36.7252 112.809 37.119C112.365 37.5057 111.832 37.81 111.209 38.032C110.586 38.2468 109.866 38.3543 109.05 38.3543ZM110.36 35.1964C111.033 35.1964 111.628 35.0639 112.143 34.7989C112.659 34.5268 113.063 34.1616 113.357 33.7033C113.651 33.2451 113.797 32.7259 113.797 32.1459V30.3951C113.654 30.4882 113.457 30.5741 113.207 30.6529C112.963 30.7245 112.687 30.7925 112.38 30.8569C112.072 30.9142 111.764 30.9679 111.456 31.0181C111.148 31.061 110.869 31.1004 110.618 31.1362C110.081 31.215 109.612 31.3403 109.211 31.5122C108.81 31.684 108.498 31.9167 108.276 32.2103C108.054 32.4968 107.943 32.8548 107.943 33.2844C107.943 33.9074 108.169 34.3836 108.62 34.713C109.078 35.0352 109.658 35.1964 110.36 35.1964Z" fill="white"/>
<path d="M127.833 38.365C126.143 38.365 124.689 38.007 123.472 37.2909C122.262 36.5677 121.331 35.5651 120.679 34.2834C120.035 33.0016 119.713 31.5265 119.713 29.858C119.713 28.1681 120.038 26.6858 120.69 25.4112C121.349 24.1294 122.283 23.1305 123.493 22.4144C124.704 21.6912 126.143 21.3296 127.811 21.3296C129.251 21.3296 130.511 21.5909 131.592 22.1137C132.674 22.6364 133.529 23.3704 134.159 24.3156C134.79 25.2608 135.137 26.3707 135.201 27.6453H130.883C130.762 26.8219 130.439 26.1595 129.917 25.6582C129.401 25.1498 128.724 24.8956 127.887 24.8956C127.178 24.8956 126.558 25.089 126.028 25.4756C125.506 25.8552 125.097 26.4101 124.804 27.1405C124.51 27.8709 124.363 28.7553 124.363 29.7936C124.363 30.8462 124.507 31.7413 124.793 32.4789C125.087 33.2164 125.498 33.7785 126.028 34.1652C126.558 34.5519 127.178 34.7452 127.887 34.7452C128.409 34.7452 128.878 34.6378 129.294 34.423C129.716 34.2082 130.063 33.8967 130.336 33.4885C130.615 33.0732 130.797 32.5755 130.883 31.9955H135.201C135.13 33.2558 134.786 34.3657 134.17 35.3253C133.561 36.2776 132.72 37.0224 131.646 37.5594C130.572 38.0965 129.301 38.365 127.833 38.365Z" fill="white"/>
<path d="M144.073 38.365C142.383 38.365 140.929 38.007 139.712 37.2909C138.502 36.5677 137.571 35.5651 136.919 34.2834C136.275 33.0016 135.953 31.5265 135.953 29.858C135.953 28.1681 136.278 26.6858 136.93 25.4112C137.589 24.1294 138.523 23.1305 139.733 22.4144C140.944 21.6912 142.383 21.3296 144.051 21.3296C145.491 21.3296 146.751 21.5909 147.832 22.1137C148.914 22.6364 149.769 23.3704 150.399 24.3156C151.03 25.2608 151.377 26.3707 151.441 27.6453H147.123C147.002 26.8219 146.679 26.1595 146.157 25.6582C145.641 25.1498 144.964 24.8956 144.127 24.8956C143.418 24.8956 142.798 25.089 142.268 25.4756C141.746 25.8552 141.337 26.4101 141.044 27.1405C140.75 27.8709 140.604 28.7553 140.604 29.7936C140.604 30.8462 140.747 31.7413 141.033 32.4789C141.327 33.2164 141.739 33.7785 142.268 34.1652C142.798 34.5519 143.418 34.7452 144.127 34.7452C144.649 34.7452 145.118 34.6378 145.534 34.423C145.956 34.2082 146.303 33.8967 146.576 33.4885C146.855 33.0732 147.037 32.5755 147.123 31.9955H151.441C151.37 33.2558 151.026 34.3657 150.41 35.3253C149.802 36.2776 148.96 37.0224 147.886 37.5594C146.812 38.0965 145.541 38.365 144.073 38.365Z" fill="white"/>
<path d="M160.377 38.365C158.68 38.365 157.22 38.0213 155.995 37.3339C154.778 36.6393 153.84 35.6582 153.181 34.3908C152.522 33.1162 152.193 31.6088 152.193 29.8688C152.193 28.1717 152.522 26.6822 153.181 25.4005C153.84 24.1187 154.767 23.1197 155.963 22.4037C157.166 21.6876 158.576 21.3296 160.195 21.3296C161.283 21.3296 162.297 21.505 163.235 21.8559C164.18 22.1996 165.003 22.7187 165.705 23.4133C166.414 24.1079 166.965 24.9815 167.359 26.0342C167.753 27.0796 167.95 28.3041 167.95 29.7076V30.9644H154.019V28.1287H163.643C163.643 27.4699 163.5 26.8863 163.213 26.3779C162.927 25.8695 162.529 25.4721 162.021 25.1856C161.52 24.892 160.936 24.7452 160.27 24.7452C159.575 24.7452 158.96 24.9064 158.423 25.2286C157.893 25.5437 157.477 25.9697 157.177 26.5068C156.876 27.0367 156.722 27.6274 156.715 28.2791V30.9751C156.715 31.7914 156.865 32.4968 157.166 33.0911C157.474 33.6854 157.907 34.1437 158.465 34.466C159.024 34.7882 159.686 34.9493 160.453 34.9493C160.961 34.9493 161.426 34.8777 161.849 34.7345C162.271 34.5913 162.633 34.3765 162.934 34.09C163.235 33.8036 163.464 33.4527 163.621 33.0374L167.853 33.3167C167.638 34.3335 167.198 35.2214 166.532 35.9805C165.873 36.7323 165.021 37.3195 163.976 37.742C162.937 38.1573 161.738 38.365 160.377 38.365Z" fill="white"/>
<path d="M183.151 26.249L178.962 26.5068C178.89 26.1487 178.736 25.8265 178.5 25.5401C178.264 25.2465 177.952 25.0138 177.565 24.8419C177.186 24.6629 176.731 24.5734 176.201 24.5734C175.492 24.5734 174.894 24.7238 174.407 25.0245C173.921 25.3181 173.677 25.7119 173.677 26.206C173.677 26.5999 173.835 26.9329 174.15 27.205C174.465 27.4771 175.005 27.6955 175.772 27.8602L178.758 28.4617C180.362 28.7911 181.558 29.321 182.345 30.0514C183.133 30.7818 183.527 31.7413 183.527 32.93C183.527 34.0113 183.208 34.9601 182.571 35.7764C181.941 36.5927 181.074 37.23 179.971 37.6883C178.876 38.1394 177.612 38.365 176.18 38.365C173.996 38.365 172.256 37.9103 170.96 37.0009C169.671 36.0843 168.915 34.8383 168.693 33.263L173.194 33.0267C173.33 33.6926 173.659 34.201 174.182 34.5519C174.705 34.8956 175.374 35.0675 176.191 35.0675C176.993 35.0675 177.637 34.9135 178.124 34.6056C178.618 34.2905 178.869 33.8859 178.876 33.3919C178.869 32.9765 178.693 32.6364 178.349 32.3714C178.006 32.0993 177.476 31.8917 176.76 31.7485L173.903 31.1792C172.291 30.8569 171.092 30.2984 170.304 29.5036C169.524 28.7087 169.134 27.6955 169.134 26.4638C169.134 25.404 169.42 24.491 169.993 23.7248C170.573 22.9586 171.386 22.3679 172.431 21.9525C173.484 21.5372 174.715 21.3296 176.126 21.3296C178.21 21.3296 179.85 21.7699 181.046 22.6507C182.249 23.5315 182.95 24.7309 183.151 26.249Z" fill="white"/>
<path d="M198.623 26.249L194.434 26.5068C194.362 26.1487 194.208 25.8265 193.972 25.5401C193.736 25.2465 193.424 25.0138 193.037 24.8419C192.658 24.6629 192.203 24.5734 191.673 24.5734C190.964 24.5734 190.366 24.7238 189.88 25.0245C189.393 25.3181 189.149 25.7119 189.149 26.206C189.149 26.5999 189.307 26.9329 189.622 27.205C189.937 27.4771 190.477 27.6955 191.244 27.8602L194.23 28.4617C195.834 28.7911 197.03 29.321 197.817 30.0514C198.605 30.7818 198.999 31.7413 198.999 32.93C198.999 34.0113 198.68 34.9601 198.043 35.7764C197.413 36.5927 196.546 37.23 195.443 37.6883C194.348 38.1394 193.084 38.365 191.652 38.365C189.468 38.365 187.728 37.9103 186.432 37.0009C185.143 36.0843 184.387 34.8383 184.165 33.263L188.666 33.0267C188.802 33.6926 189.131 34.201 189.654 34.5519C190.177 34.8956 190.846 35.0675 191.663 35.0675C192.465 35.0675 193.109 34.9135 193.596 34.6056C194.09 34.2905 194.341 33.8859 194.348 33.3919C194.341 32.9765 194.165 32.6364 193.822 32.3714C193.478 32.0993 192.948 31.8917 192.232 31.7485L189.375 31.1792C187.764 30.8569 186.564 30.2984 185.776 29.5036C184.996 28.7087 184.606 27.6955 184.606 26.4638C184.606 25.404 184.892 24.491 185.465 23.7248C186.045 22.9586 186.858 22.3679 187.903 21.9525C188.956 21.5372 190.187 21.3296 191.598 21.3296C193.682 21.3296 195.322 21.7699 196.518 22.6507C197.721 23.5315 198.422 24.7309 198.623 26.249Z" fill="white"/>
</svg>
