<svg width="2440" height="473" viewBox="0 0 2440 473" fill="none" xmlns="http://www.w3.org/2000/svg">
<path d="M397.946 220.897C398.397 226.31 398.627 231.785 398.627 237.313C398.627 345.182 311.182 432.627 203.313 432.627C95.4448 432.627 8 345.182 8 237.313C8.00002 129.445 95.4448 42 203.313 42C247.28 42.0002 287.853 56.5291 320.495 81.0459V42H397.946V220.897ZM203.315 122.768C185.024 161.777 159.465 189.118 105.572 191.881C123.197 285.19 154.873 311.383 203.315 340.904C260.196 308.901 283.669 276.076 301.402 191.881C244.828 184.61 222.012 159.634 203.315 122.768Z" fill="#00C951"/>
<path d="M582.998 338.257C567.651 338.257 553.751 334.311 541.299 326.418C528.934 318.438 519.112 306.731 511.833 291.296C504.642 275.774 501.047 256.745 501.047 234.207C501.047 211.056 504.774 191.807 512.228 176.46C519.682 161.026 529.591 149.494 541.956 141.865C554.409 134.148 568.046 130.289 582.866 130.289C594.179 130.289 603.606 132.218 611.147 136.077C618.777 139.848 624.916 144.583 629.563 150.283C634.299 155.896 637.894 161.421 640.35 166.858H642.06V65.5703H697.965V334.968H642.718V302.609H640.35C637.719 308.221 633.992 313.79 629.169 319.315C624.433 324.752 618.251 329.268 610.621 332.864C603.08 336.459 593.872 338.257 582.998 338.257ZM600.756 293.664C609.788 293.664 617.418 291.209 623.644 286.298C629.958 281.299 634.781 274.327 638.114 265.383C641.534 256.438 643.244 245.958 643.244 233.944C643.244 221.93 641.578 211.494 638.245 202.637C634.913 193.78 630.09 186.94 623.776 182.116C617.462 177.293 609.788 174.882 600.756 174.882C591.548 174.882 583.787 177.381 577.473 182.38C571.159 187.378 566.379 194.306 563.135 203.163C559.89 212.02 558.268 222.281 558.268 233.944C558.268 245.695 559.89 256.087 563.135 265.119C566.467 274.064 571.246 281.08 577.473 286.166C583.787 291.165 591.548 293.664 600.756 293.664Z" fill="white"/>
<path d="M725.517 334.968V132.92H779.843V168.173H781.948C785.631 155.633 791.814 146.162 800.496 139.76C809.177 133.271 819.175 130.026 830.487 130.026C833.293 130.026 836.319 130.201 839.564 130.552C842.808 130.903 845.658 131.385 848.114 131.999V181.722C845.483 180.933 841.844 180.231 837.196 179.617C832.548 179.003 828.295 178.696 824.436 178.696C816.193 178.696 808.827 180.494 802.337 184.09C795.935 187.597 790.849 192.508 787.078 198.822C783.395 205.136 781.554 212.415 781.554 220.658V334.968H725.517Z" fill="white"/>
<path d="M940.45 338.914C920.017 338.914 902.346 334.574 887.438 325.892C872.618 317.122 861.174 304.933 853.106 289.323C845.038 273.626 841.004 255.429 841.004 234.733C841.004 213.862 845.038 195.621 853.106 180.012C861.174 164.314 872.618 152.125 887.438 143.443C902.346 134.674 920.017 130.289 940.45 130.289C960.882 130.289 978.509 134.674 993.329 143.443C1008.24 152.125 1019.73 164.314 1027.79 180.012C1035.86 195.621 1039.9 213.862 1039.9 234.733C1039.9 255.429 1035.86 273.626 1027.79 289.323C1019.73 304.933 1008.24 317.122 993.329 325.892C978.509 334.574 960.882 338.914 940.45 338.914ZM940.713 295.506C950.008 295.506 957.769 292.875 963.996 287.613C970.222 282.264 974.914 274.985 978.071 265.777C981.315 256.569 982.938 246.09 982.938 234.339C982.938 222.588 981.315 212.108 978.071 202.9C974.914 193.692 970.222 186.414 963.996 181.064C957.769 175.715 950.008 173.04 940.713 173.04C931.329 173.04 923.437 175.715 917.035 181.064C910.721 186.414 905.942 193.692 902.697 202.9C899.54 212.108 897.962 222.588 897.962 234.339C897.962 246.09 899.54 256.569 902.697 265.777C905.942 274.985 910.721 282.264 917.035 287.613C923.437 292.875 931.329 295.506 940.713 295.506Z" fill="white"/>
<path d="M1057.81 410.736V132.92H1113.06V166.858H1115.56C1118.01 161.421 1121.57 155.896 1126.21 150.283C1130.95 144.583 1137.09 139.848 1144.63 136.077C1152.26 132.218 1161.73 130.289 1173.04 130.289C1187.77 130.289 1201.37 134.148 1213.82 141.865C1226.27 149.494 1236.23 161.026 1243.68 176.46C1251.13 191.807 1254.86 211.056 1254.86 234.207C1254.86 256.745 1251.22 275.774 1243.94 291.296C1236.75 306.731 1226.93 318.438 1214.48 326.418C1202.11 334.311 1188.26 338.257 1172.91 338.257C1162.04 338.257 1152.78 336.459 1145.16 332.864C1137.61 329.268 1131.43 324.752 1126.61 319.315C1121.78 313.79 1118.1 308.221 1115.56 302.609H1113.85V410.736H1057.81ZM1112.66 233.944C1112.66 245.958 1114.33 256.438 1117.66 265.383C1121 274.327 1125.82 281.299 1132.13 286.298C1138.45 291.209 1146.12 293.664 1155.15 293.664C1164.27 293.664 1171.99 291.165 1178.3 286.166C1184.62 281.08 1189.4 274.064 1192.64 265.119C1195.97 256.087 1197.64 245.695 1197.64 233.944C1197.64 222.281 1196.02 212.02 1192.77 203.163C1189.53 194.306 1184.75 187.378 1178.44 182.38C1172.12 177.381 1164.36 174.882 1155.15 174.882C1146.03 174.882 1138.32 177.293 1132 182.116C1125.77 186.94 1121 193.78 1117.66 202.637C1114.33 211.494 1112.66 221.93 1112.66 233.944Z" fill="white"/>
<path d="M1331.31 338.783C1318.42 338.783 1306.93 336.547 1296.85 332.074C1286.76 327.514 1278.78 320.806 1272.91 311.948C1267.12 303.004 1264.23 291.866 1264.23 278.537C1264.23 267.312 1266.29 257.885 1270.41 250.255C1274.53 242.626 1280.14 236.487 1287.25 231.839C1294.35 227.192 1302.42 223.684 1311.45 221.316C1320.57 218.948 1330.13 217.282 1340.13 216.317C1351.88 215.09 1361.35 213.95 1368.54 212.897C1375.73 211.757 1380.95 210.091 1384.19 207.899C1387.44 205.706 1389.06 202.462 1389.06 198.165V197.375C1389.06 189.044 1386.43 182.599 1381.17 178.039C1375.99 173.479 1368.63 171.199 1359.07 171.199C1348.98 171.199 1340.96 173.435 1335 177.907C1329.03 182.292 1325.09 187.817 1323.16 194.481L1271.33 190.272C1273.96 177.995 1279.14 167.384 1286.85 158.439C1294.57 149.406 1304.52 142.479 1316.71 137.655C1328.99 132.744 1343.2 130.289 1359.33 130.289C1370.56 130.289 1381.3 131.604 1391.56 134.235C1401.91 136.866 1411.07 140.944 1419.05 146.469C1427.12 151.993 1433.48 159.097 1438.13 167.778C1442.77 176.372 1445.1 186.677 1445.1 198.691V334.968H1391.95V306.95H1390.38C1387.13 313.264 1382.79 318.832 1377.35 323.656C1371.92 328.391 1365.38 332.118 1357.75 334.837C1350.12 337.468 1341.31 338.783 1331.31 338.783ZM1347.36 300.11C1355.6 300.11 1362.88 298.487 1369.2 295.243C1375.51 291.91 1380.47 287.438 1384.06 281.825C1387.66 276.213 1389.45 269.855 1389.45 262.752V241.31C1387.7 242.45 1385.29 243.503 1382.22 244.467C1379.24 245.344 1375.86 246.177 1372.09 246.967C1368.32 247.668 1364.55 248.326 1360.78 248.94C1357.01 249.466 1353.59 249.948 1350.52 250.387C1343.94 251.351 1338.2 252.886 1333.29 254.991C1328.38 257.095 1324.56 259.945 1321.84 263.541C1319.12 267.049 1317.76 271.433 1317.76 276.695C1317.76 284.325 1320.53 290.156 1326.05 294.19C1331.66 298.136 1338.77 300.11 1347.36 300.11Z" fill="white"/>
<path d="M1561.34 338.914C1540.64 338.914 1522.84 334.53 1507.93 325.76C1493.11 316.903 1481.71 304.626 1473.73 288.929C1465.84 273.231 1461.9 255.166 1461.9 234.733C1461.9 214.037 1465.89 195.885 1473.87 180.275C1481.93 164.578 1493.38 152.344 1508.2 143.575C1523.02 134.718 1540.64 130.289 1561.08 130.289C1578.7 130.289 1594.14 133.49 1607.38 139.892C1620.62 146.293 1631.1 155.282 1638.82 166.858C1646.54 178.433 1650.79 192.026 1651.58 207.636H1598.7C1597.21 197.551 1593.26 189.439 1586.86 183.3C1580.55 177.074 1572.26 173.961 1562 173.961C1553.32 173.961 1545.73 176.329 1539.24 181.064C1532.84 185.712 1527.84 192.508 1524.25 201.453C1520.65 210.398 1518.85 221.228 1518.85 233.944C1518.85 246.835 1520.61 257.797 1524.11 266.83C1527.71 275.862 1532.75 282.746 1539.24 287.482C1545.73 292.217 1553.32 294.585 1562 294.585C1568.4 294.585 1574.14 293.269 1579.23 290.639C1584.4 288.008 1588.66 284.193 1591.99 279.194C1595.41 274.108 1597.65 268.013 1598.7 260.91H1651.58C1650.7 276.344 1646.49 289.937 1638.95 301.688C1631.5 313.352 1621.19 322.472 1608.04 329.049C1594.88 335.626 1579.32 338.914 1561.34 338.914Z" fill="white"/>
<path d="M1760.23 338.914C1739.53 338.914 1721.73 334.53 1706.82 325.76C1692 316.903 1680.6 304.626 1672.62 288.929C1664.73 273.231 1660.78 255.166 1660.78 234.733C1660.78 214.037 1664.77 195.885 1672.75 180.275C1680.82 164.578 1692.26 152.344 1707.08 143.575C1721.9 134.718 1739.53 130.289 1759.96 130.289C1777.59 130.289 1793.02 133.49 1806.27 139.892C1819.51 146.293 1829.99 155.282 1837.7 166.858C1845.42 178.433 1849.67 192.026 1850.46 207.636H1797.58C1796.09 197.551 1792.15 189.439 1785.74 183.3C1779.43 177.074 1771.14 173.961 1760.88 173.961C1752.2 173.961 1744.62 176.329 1738.13 181.064C1731.72 185.712 1726.73 192.508 1723.13 201.453C1719.54 210.398 1717.74 221.228 1717.74 233.944C1717.74 246.835 1719.49 257.797 1723 266.83C1726.59 275.862 1731.64 282.746 1738.13 287.482C1744.62 292.217 1752.2 294.585 1760.88 294.585C1767.29 294.585 1773.03 293.269 1778.12 290.639C1783.29 288.008 1787.54 284.193 1790.87 279.194C1794.3 274.108 1796.53 268.013 1797.58 260.91H1850.46C1849.59 276.344 1845.38 289.937 1837.84 301.688C1830.38 313.352 1820.08 322.472 1806.92 329.049C1793.77 335.626 1778.2 338.914 1760.23 338.914Z" fill="white"/>
<path d="M1959.9 338.914C1939.12 338.914 1921.23 334.705 1906.23 326.286C1891.32 317.78 1879.83 305.766 1871.77 290.244C1863.7 274.634 1859.66 256.175 1859.66 234.865C1859.66 214.081 1863.7 195.841 1871.77 180.143C1879.83 164.446 1891.19 152.213 1905.84 143.443C1920.57 134.674 1937.84 130.289 1957.66 130.289C1970.99 130.289 1983.4 132.437 1994.89 136.735C2006.47 140.944 2016.55 147.302 2025.14 155.808C2033.83 164.314 2040.58 175.013 2045.4 187.904C2050.23 200.708 2052.64 215.704 2052.64 232.892V248.282H1882.03V213.555H1999.89C1999.89 205.487 1998.13 198.34 1994.63 192.114C1991.12 185.887 1986.25 181.02 1980.03 177.513C1973.89 173.917 1966.74 172.119 1958.58 172.119C1950.08 172.119 1942.54 174.092 1935.96 178.039C1929.47 181.897 1924.38 187.115 1920.7 193.692C1917.02 200.182 1915.13 207.416 1915.04 215.397V248.414C1915.04 258.411 1916.89 267.049 1920.57 274.327C1924.34 281.606 1929.65 287.219 1936.49 291.165C1943.33 295.111 1951.44 297.084 1960.82 297.084C1967.05 297.084 1972.75 296.207 1977.92 294.453C1983.1 292.699 1987.52 290.069 1991.21 286.561C1994.89 283.053 1997.7 278.756 1999.63 273.67L2051.45 277.09C2048.82 289.542 2043.43 300.417 2035.27 309.712C2027.21 318.92 2016.77 326.111 2003.97 331.285C1991.25 336.371 1976.56 338.914 1959.9 338.914Z" fill="white"/>
<path d="M2238.8 190.535L2187.49 193.692C2186.62 189.307 2184.73 185.361 2181.84 181.853C2178.94 178.258 2175.13 175.408 2170.39 173.303C2165.75 171.111 2160.18 170.015 2153.69 170.015C2145.01 170.015 2137.68 171.856 2131.72 175.539C2125.76 179.135 2122.78 183.958 2122.78 190.009C2122.78 194.832 2124.7 198.91 2128.56 202.242C2132.42 205.575 2139.04 208.249 2148.43 210.266L2184.99 217.633C2204.64 221.667 2219.28 228.156 2228.93 237.101C2238.58 246.046 2243.4 257.797 2243.4 272.354C2243.4 285.596 2239.5 297.216 2231.69 307.213C2223.97 317.21 2213.36 325.015 2199.86 330.627C2186.44 336.152 2170.96 338.914 2153.42 338.914C2126.68 338.914 2105.37 333.346 2089.49 322.209C2073.71 310.984 2064.46 295.725 2061.74 276.432L2116.86 273.538C2118.52 281.694 2122.56 287.92 2128.96 292.217C2135.36 296.426 2143.56 298.531 2153.56 298.531C2163.38 298.531 2171.27 296.646 2177.23 292.875C2183.28 289.016 2186.35 284.062 2186.44 278.011C2186.35 272.924 2184.21 268.759 2180 265.514C2175.79 262.182 2169.3 259.639 2160.53 257.885L2125.54 250.913C2105.81 246.967 2091.12 240.127 2081.47 230.392C2071.91 220.658 2067.13 208.249 2067.13 193.166C2067.13 180.187 2070.64 169.006 2077.66 159.623C2084.76 150.239 2094.71 143.005 2107.52 137.918C2120.41 132.832 2135.49 130.289 2152.77 130.289C2178.29 130.289 2198.37 135.682 2213.01 146.469C2227.75 157.255 2236.34 171.944 2238.8 190.535Z" fill="white"/>
<path d="M2428.27 190.535L2376.97 193.692C2376.1 189.307 2374.21 185.361 2371.32 181.853C2368.42 178.258 2364.61 175.408 2359.87 173.303C2355.23 171.111 2349.66 170.015 2343.17 170.015C2334.49 170.015 2327.16 171.856 2321.2 175.539C2315.24 179.135 2312.25 183.958 2312.25 190.009C2312.25 194.832 2314.18 198.91 2318.04 202.242C2321.9 205.575 2328.52 208.249 2337.91 210.266L2374.47 217.633C2394.12 221.667 2408.76 228.156 2418.41 237.101C2428.06 246.046 2432.88 257.797 2432.88 272.354C2432.88 285.596 2428.98 297.216 2421.17 307.213C2413.45 317.21 2402.84 325.015 2389.34 330.627C2375.92 336.152 2360.44 338.914 2342.9 338.914C2316.16 338.914 2294.85 333.346 2278.97 322.209C2263.19 310.984 2253.94 295.725 2251.22 276.432L2306.34 273.538C2308 281.694 2312.04 287.92 2318.44 292.217C2324.84 296.426 2333.04 298.531 2343.04 298.531C2352.86 298.531 2360.75 296.646 2366.71 292.875C2372.76 289.016 2375.83 284.062 2375.92 278.011C2375.83 272.924 2373.68 268.759 2369.48 265.514C2365.27 262.182 2358.78 259.639 2350.01 257.885L2315.02 250.913C2295.29 246.967 2280.6 240.127 2270.95 230.392C2261.39 220.658 2256.61 208.249 2256.61 193.166C2256.61 180.187 2260.12 169.006 2267.14 159.623C2274.24 150.239 2284.19 143.005 2297 137.918C2309.89 132.832 2324.97 130.289 2342.25 130.289C2367.77 130.289 2387.85 135.682 2402.49 146.469C2417.23 157.255 2425.82 171.944 2428.27 190.535Z" fill="white"/>
</svg>
